<?xml version="1.0" encoding="UTF-8"?>
<svg version="1.1" xmlns="http://www.w3.org/2000/svg" width="24" height="24">
<path d="M0 0 C3.36990424 0.01386592 6.73701681 -0.02038354 10.10668945 -0.05834961 C29.79353224 -0.12878858 49.02625496 2.80457657 67.63208008 9.38891602 C68.61837402 9.72874512 69.60466797 10.06857422 70.62084961 10.41870117 C78.44185235 13.18994272 85.83285129 16.48690595 93.0949707 20.49047852 C95.23585705 21.66786013 97.39386557 22.80968073 99.55395508 23.95141602 C112.80851774 31.03895432 124.65958385 38.97264776 135.63208008 49.29125977 C137.68606438 51.21687005 139.78091658 53.02787073 141.94458008 54.82641602 C151.57935125 63.23206 159.85791364 73.05605629 167.06958008 83.57641602 C167.63805664 84.34856445 168.2065332 85.12071289 168.79223633 85.91625977 C180.64688356 102.14551486 188.82979991 120.5222565 195.31958008 139.45141602 C195.79536499 140.81169922 195.79536499 140.81169922 196.28076172 142.19946289 C202.36181873 160.56243411 203.74060424 178.29149314 203.64599609 197.56640625 C203.63211205 201.50484569 203.66635781 205.4409091 203.7043457 209.37915039 C203.74957098 224.49851889 202.42505894 238.09512846 198.06958008 252.57641602 C197.6635948 254.01884246 197.26024655 255.4620144 196.85986328 256.90600586 C190.37817407 279.77521864 179.48912275 301.71828448 165.06958008 320.57641602 C164.06797852 321.89706055 164.06797852 321.89706055 163.04614258 323.24438477 C157.7620874 330.0273862 151.96323048 336.32608936 146.06958008 342.57641602 C145.3399707 343.36016602 144.61036133 344.14391602 143.85864258 344.95141602 C134.75027446 354.43224529 123.95941565 362.2687632 113.06958008 369.57641602 C111.95583008 370.36532227 111.95583008 370.36532227 110.81958008 371.17016602 C80.16568068 391.99909766 43.51136026 401.34846787 6.87792969 401.15283203 C3.27094976 401.13896932 -0.33342245 401.17318991 -3.94018555 401.21118164 C-54.7633615 401.37690586 -101.10427828 379.81100916 -137.4387207 345.00512695 C-138.81207489 343.68976383 -140.19690232 342.38640752 -141.58276367 341.08422852 C-163.61903686 319.8486414 -178.57925509 292.08911112 -188.93041992 263.57641602 C-189.33905273 262.45364258 -189.74768555 261.33086914 -190.16870117 260.17407227 C-196.32879018 241.69380523 -197.62744647 223.14753784 -197.56176758 203.78564453 C-197.55545543 199.91071376 -197.60252462 196.03886201 -197.65307617 192.16430664 C-197.79918629 163.09831886 -190.80992131 135.0994133 -176.9675293 109.4987793 C-175.92968339 107.57505079 -174.92200748 105.63741674 -173.91479492 103.69750977 C-164.75871129 86.41225337 -152.62487263 71.45351806 -138.93041992 57.57641602 C-138.37999023 56.99972168 -137.82956055 56.42302734 -137.26245117 55.82885742 C-135.85674981 54.3733779 -134.39764255 52.9698559 -132.93041992 51.57641602 C-132.27041992 51.57641602 -131.61041992 51.57641602 -130.93041992 51.57641602 C-130.93041992 50.91641602 -130.93041992 50.25641602 -130.93041992 49.57641602 C-128.94874593 47.81764218 -126.9645262 46.1890409 -124.86791992 44.57641602 C-124.23885742 44.08874756 -123.60979492 43.6010791 -122.96166992 43.09863281 C-107.76757936 31.46424688 -91.69682554 21.7434229 -73.93041992 14.57641602 C-73.12733398 14.23094727 -72.32424805 13.88547852 -71.49682617 13.52954102 C-48.43697941 3.77806335 -24.94796319 -0.14245675 0 0 Z M-120.71948242 61.55297852 C-122.47707369 63.16151611 -124.24917131 64.66566975 -126.11791992 66.13891602 C-129.04638592 68.67691988 -131.49161013 71.36456574 -133.98974609 74.31713867 C-135.85762212 76.49166688 -137.78257425 78.6001663 -139.71948242 80.71313477 C-143.90385684 85.4180257 -147.46858913 90.38709171 -150.93041992 95.63891602 C-151.53345947 96.54706055 -152.13649902 97.45520508 -152.7578125 98.39086914 C-157.16446728 105.14027993 -160.97334719 112.02707952 -164.37963867 119.32641602 C-165.93041992 122.57641602 -165.93041992 122.57641602 -167.39135742 124.84204102 C-187.1459059 159.93895455 -187.93586635 210.66019978 -177.46166992 248.44750977 C-169.50699956 275.65562242 -157.01889599 300.51873226 -138.27807617 321.86938477 C-135.93041992 324.57641602 -135.93041992 324.57641602 -134.23901367 326.93969727 C-133.80717773 327.47981445 -133.3753418 328.01993164 -132.93041992 328.57641602 C-132.27041992 328.57641602 -131.61041992 328.57641602 -130.93041992 328.57641602 C-130.70354492 329.13329102 -130.47666992 329.69016602 -130.24291992 330.26391602 C-128.55491956 333.23801189 -126.46365476 335.29650467 -123.93041992 337.57641602 C-123.27041992 337.57641602 -122.61041992 337.57641602 -121.93041992 337.57641602 C-121.43541992 339.06141602 -121.43541992 339.06141602 -120.93041992 340.57641602 C-119.39531393 342.06927517 -119.39531393 342.06927517 -117.46557617 343.46704102 C-116.75296631 344.0083667 -116.04035645 344.54969238 -115.30615234 345.10742188 C-114.16110229 345.95832397 -114.16110229 345.95832397 -112.99291992 346.82641602 C-111.82756714 347.70148804 -111.82756714 347.70148804 -110.63867188 348.59423828 C-108.40844358 350.26301376 -106.17024109 351.92055199 -103.93041992 353.57641602 C-102.96362305 354.3021582 -101.99682617 355.02790039 -101.00073242 355.77563477 C-95.90906516 359.49004777 -90.64229427 362.40256623 -84.95776367 365.11938477 C-83.05303432 366.03611257 -81.16623242 366.99210668 -79.30932617 368.00219727 C-37.72721339 390.39256569 14.09265424 392.16871164 58.69018555 378.7902832 C81.91161041 371.49124697 102.12641392 359.73592743 121.06958008 344.57641602 C121.99899414 343.86356445 122.9284082 343.15071289 123.88598633 342.41625977 C128.2705844 339.02489404 132.18602054 335.68075196 135.62036133 331.31469727 C137.06958008 329.57641602 137.06958008 329.57641602 139.43286133 327.22485352 C172.06562992 294.44705039 188.56125232 248.34326824 189.31958008 202.70141602 C189.26981855 199.986648 189.19094491 197.28768272 189.06958008 194.57641602 C189.03380859 193.70855469 188.99803711 192.84069336 188.96118164 191.9465332 C188.22363128 176.25339957 185.48071807 161.63844721 181.06958008 146.57641602 C180.70558105 145.31909668 180.70558105 145.31909668 180.33422852 144.03637695 C168.00186205 102.25560859 138.82815765 67.53333696 103.06958008 43.57641602 C101.79920898 42.6830957 101.79920898 42.6830957 100.50317383 41.77172852 C34.04984426 -3.36245776 -62.85466577 8.06909436 -120.71948242 61.55297852 Z " fill="#A264CB" transform="translate(196.930419921875,-0.576416015625)"/>
<path d="M0 0 C1.80470009 -0.00956978 1.80470009 -0.00956978 3.64585876 -0.01933289 C5.62048851 -0.02100212 5.62048851 -0.02100212 7.63500977 -0.02270508 C9.00293512 -0.02592135 10.37086014 -0.0292857 11.73878479 -0.03279114 C14.62322786 -0.03879946 17.50764095 -0.04063 20.39208984 -0.04003906 C23.31793515 -0.03995865 26.2436211 -0.04675678 29.16943359 -0.06054688 C82.99264207 -0.31073563 82.99264207 -0.31073563 97.91235352 13.47729492 C106.3547969 22.37054839 108.74171536 31.21368184 108.61157227 43.39135742 C107.67546355 54.96954423 103.50206486 63.9623243 95.38891602 72.14526367 C94.07606693 73.17200856 92.74795815 74.1804931 91.38891602 75.14526367 C92.42338867 75.62092773 92.42338867 75.62092773 93.47875977 76.10620117 C102.57715525 80.62419728 109.71498705 86.58458097 113.95141602 96.02026367 C117.61251814 107.88088484 116.98464058 123.0700462 111.38891602 134.14526367 C105.29877102 145.30783713 96.60378315 150.65249174 84.95532227 155.10229492 C74.15598025 158.26048147 63.62246745 158.41275297 52.47094727 158.34057617 C50.76031155 158.33683841 49.04967367 158.33399505 47.33903503 158.33200073 C42.87240517 158.32442433 38.40590878 158.30482851 33.93933105 158.28259277 C29.36720586 158.26200404 24.79505875 158.25297136 20.22290039 158.24291992 C11.27818082 158.22157599 2.33355959 158.18751391 -6.61108398 158.14526367 C-6.63441124 137.69227893 -6.6520623 117.23929688 -6.66289616 96.78630161 C-6.66805948 87.29030984 -6.67510288 77.79432632 -6.68652344 68.29833984 C-6.69646916 60.02473522 -6.70293714 51.75113657 -6.70517248 43.47752613 C-6.70647978 39.09392777 -6.70956683 34.71034651 -6.71681404 30.32675362 C-6.72357249 26.20562867 -6.72570131 22.08452794 -6.72419167 17.96339798 C-6.72446807 16.44640026 -6.72647423 14.92940178 -6.73028946 13.41240883 C-6.73522399 11.35019066 -6.73408319 9.28806541 -6.7313385 7.22584534 C-6.73226029 6.06899514 -6.73318209 4.91214495 -6.73413181 3.72023869 C-6.50935408 -0.98359925 -4.16139695 0.01492685 0 0 Z M25.38891602 30.14526367 C25.38891602 41.69526367 25.38891602 53.24526367 25.38891602 65.14526367 C30.85454102 65.18651367 36.32016602 65.22776367 41.95141602 65.27026367 C43.66272705 65.28847168 45.37403809 65.30667969 47.13720703 65.32543945 C48.5140756 65.33128804 49.89094766 65.33638273 51.26782227 65.34057617 C52.31528625 65.35592407 52.31528625 65.35592407 53.38391113 65.37158203 C60.94126765 65.37423141 66.46090301 63.83005947 71.94360352 58.70385742 C75.75710299 54.59146204 75.83385175 50.03478224 75.69750977 44.64526367 C75.18617443 40.50280022 73.97812882 38.46476726 71.38891602 35.14526367 C65.32078347 30.52728809 59.72836687 29.99621232 52.34204102 30.04760742 C51.65803223 30.0486145 50.97402344 30.04962158 50.26928711 30.05065918 C47.72581291 30.05587237 45.18236269 30.06983361 42.63891602 30.08276367 C36.94641602 30.10338867 31.25391602 30.12401367 25.38891602 30.14526367 Z M25.38891602 92.14526367 C25.30032956 94.88420452 25.27368123 97.59779637 25.29125977 100.33666992 C25.29267471 101.15650864 25.29408966 101.97634735 25.29554749 102.82102966 C25.30116312 105.4499775 25.31371822 108.07884141 25.32641602 110.70776367 C25.331429 112.48575724 25.33599226 114.26375213 25.34008789 116.04174805 C25.35113763 120.40961912 25.3684127 124.77742715 25.38891602 129.14526367 C31.06312237 129.21986891 36.73703809 129.27407975 42.41162109 129.31005859 C44.33875508 129.32507019 46.26585534 129.34548583 48.19287109 129.37158203 C50.97575241 129.4083031 53.7581789 129.4250666 56.54125977 129.43823242 C57.81681984 129.46145821 57.81681984 129.46145821 59.1181488 129.4851532 C66.1637594 129.48709973 72.26209876 128.11651803 78.26391602 124.33276367 C82.55280242 119.91773355 83.59144779 116.2041473 83.76391602 110.14526367 C83.58857755 103.98554708 82.576292 100.21751461 78.01391602 95.89526367 C67.54442632 88.91560388 52.63128237 90.98465107 40.57641602 91.02026367 C39.20336823 91.01669014 37.83032127 91.01278523 36.45727539 91.00854492 C35.17014648 91.00983398 33.88301758 91.01112305 32.55688477 91.01245117 C31.39439209 91.0135791 30.23189941 91.01470703 29.03417969 91.01586914 C26.46561529 90.84465935 26.46561529 90.84465935 25.38891602 92.14526367 Z " fill="#AF6CDB" transform="translate(67.611083984375,95.854736328125)"/>
<path d="M0 0 C3 0.125 3 0.125 4 1.125 C4.15655027 2.61138992 4.25066943 4.10449127 4.31640625 5.59765625 C4.37924805 6.94633789 4.37924805 6.94633789 4.44335938 8.32226562 C4.48267578 9.26779297 4.52199219 10.21332031 4.5625 11.1875 C4.60568359 12.13689453 4.64886719 13.08628906 4.69335938 14.06445312 C4.79979276 16.41781353 4.90181008 18.77128354 5 21.125 C6.05013779 21.13530746 7.10027557 21.14561493 8.18223572 21.15623474 C18.0565171 21.25379541 27.93073302 21.35651258 37.8049078 21.46433926 C42.88187884 21.51961274 47.95885559 21.57303967 53.03588867 21.62231445 C57.93125663 21.66989291 62.82655221 21.72223308 67.72183418 21.77794075 C69.59380871 21.79839395 71.4658031 21.81710201 73.33781242 21.83407402 C75.95046076 21.85805268 78.56297097 21.88811574 81.17553711 21.91967773 C82.34833725 21.92831093 82.34833725 21.92831093 83.54483032 21.93711853 C88.88594784 22.01094784 88.88594784 22.01094784 90 23.125 C90.08748207 25.05167507 90.10697334 26.98151861 90.09765625 28.91015625 C90.09282227 30.66489258 90.09282227 30.66489258 90.08789062 32.45507812 C90.07532227 34.30262695 90.07532227 34.30262695 90.0625 36.1875 C90.05798828 37.42306641 90.05347656 38.65863281 90.04882812 39.93164062 C90.03699608 42.99614117 90.02051173 46.06054721 90 49.125 C87.125 49.75 87.125 49.75 84 50.125 C81.16346212 47.28846212 80.78838868 44.15492888 79.78125 40.33984375 C79.22613754 37.94859908 79.22613754 37.94859908 77 37.125 C74.69275983 37.00379701 72.38203172 36.9474643 70.07177734 36.91967773 C69.35947464 36.90977814 68.64717194 36.89987854 67.9132843 36.88967896 C65.55420274 36.85804142 63.19510103 36.8332977 60.8359375 36.80859375 C59.20211253 36.78802616 57.56829292 36.76702974 55.93447876 36.74562073 C51.63057784 36.69037987 47.32662874 36.6409795 43.02264404 36.59277344 C37.86056233 36.53374966 32.69856883 36.46751062 27.53656006 36.40247345 C19.69109383 36.30443858 11.84557149 36.21559997 4 36.125 C4.33 56.255 4.66 76.385 5 97.125 C17.87 97.125 30.74 97.125 44 97.125 C45.32 94.155 46.64 91.185 48 88.125 C52.875 89 52.875 89 54 90.125 C54.1002093 92.40447792 54.13081303 94.68707135 54.1328125 96.96875 C54.13376923 97.65304077 54.13472595 98.33733154 54.13571167 99.0423584 C54.1363933 100.49161877 54.13454023 101.94088218 54.13037109 103.39013672 C54.12502252 105.61562928 54.1303166 107.84092001 54.13671875 110.06640625 C54.13605797 111.47135461 54.1347768 112.87630285 54.1328125 114.28125 C54.13168457 115.56837891 54.13055664 116.85550781 54.12939453 118.18164062 C54 121.125 54 121.125 53 122.125 C51.33382885 122.16563832 49.66611905 122.167721 48 122.125 C46.68 119.485 45.36 116.845 44 114.125 C24.2 113.63 24.2 113.63 4 113.125 C4 139.195 4 165.265 4 192.125 C6.97 192.785 9.94 193.445 13 194.125 C14 195.125 14 195.125 14.125 197.625 C14 200.125 14 200.125 13 201.125 C10.14122091 201.36201239 7.30116703 201.54719182 4.4375 201.6875 C3.63119141 201.73068359 2.82488281 201.77386719 1.99414062 201.81835938 C-0.00368805 201.92475262 -2.0018207 202.02540888 -4 202.125 C-4.02332574 175.93512728 -4.04097758 149.7452561 -4.05181217 123.5553751 C-4.05697582 111.39588131 -4.06401983 99.23639396 -4.07543945 87.0769043 C-4.08538419 76.48284032 -4.09185292 65.888781 -4.09408849 55.29471248 C-4.09539596 49.68150597 -4.09848406 44.0683128 -4.10573006 38.45511055 C-4.11248696 33.17833464 -4.11461764 27.90157765 -4.11310768 22.62479782 C-4.11338416 20.68208527 -4.11539123 18.73937212 -4.11920547 16.79666328 C-4.12413758 14.15641574 -4.12300009 11.51624084 -4.12025452 8.87599182 C-4.12316736 8.09682406 -4.1260802 7.31765629 -4.12908131 6.51487738 C-4.11109325 0.17129555 -4.11109325 0.17129555 0 0 Z " fill="#392A86" transform="translate(200,81.875)"/>
<path d="M0 0 C0.5775 0.226875 1.155 0.45375 1.75 0.6875 C0.875 5.4375 0.875 5.4375 -0.25 7.6875 C2.06 8.0175 4.37 8.3475 6.75 8.6875 C7.70024979 12.38291586 7.70024979 14.99208414 6.75 18.6875 C6.09 18.6875 5.43 18.6875 4.75 18.6875 C4.50121094 19.25726563 4.25242187 19.82703125 3.99609375 20.4140625 C2.5603822 23.03344845 0.86292544 24.88971644 -1.1875 27.0625 C-5.42128442 31.67684931 -9.31660975 36.46695256 -13.13549805 41.4230957 C-15.35341518 44.29622628 -17.59295039 47.12023122 -19.984375 49.8515625 C-20.81453125 50.80804688 -21.6446875 51.76453125 -22.5 52.75 C-23.24765625 53.58660156 -23.9953125 54.42320312 -24.765625 55.28515625 C-26.50655787 57.5510509 -26.50655787 57.5510509 -25.99267578 60.01025391 C-25.20537863 62.84835403 -24.15234515 65.28412169 -22.8515625 67.92578125 C-22.37203125 68.91126953 -21.8925 69.89675781 -21.3984375 70.91210938 C-20.89570313 71.93111328 -20.39296875 72.95011719 -19.875 74 C-10.6697538 92.73411434 -10.6697538 92.73411434 -12.25 97.6875 C-13.57 97.6875 -14.89 97.6875 -16.25 97.6875 C-16.58 99.3375 -16.91 100.9875 -17.25 102.6875 C-20.22 103.1825 -20.22 103.1825 -23.25 103.6875 C-25.75183594 99.54653016 -27.58702109 95.72982683 -29.19140625 91.15234375 C-31.66026456 85.40382127 -35.07021219 80.06519341 -38.25 74.6875 C-38.91 74.6875 -39.57 74.6875 -40.25 74.6875 C-41.6932174 76.40319206 -43.0538685 78.18862283 -44.375 80 C-44.77460938 80.54325928 -45.17421875 81.08651855 -45.5859375 81.64624023 C-47.5096259 84.26734177 -49.40742891 86.90658358 -51.3046875 89.546875 C-64.7098384 108.1741128 -64.7098384 108.1741128 -69.25 109.6875 C-71.59406932 109.05962429 -73.92793475 108.39241267 -76.25 107.6875 C-77.24 107.6875 -78.23 107.6875 -79.25 107.6875 C-79.96031767 95.61209963 -68.50311031 83.4198804 -62.00390625 74.0546875 C-61.38660645 73.16491211 -60.76930664 72.27513672 -60.13330078 71.35839844 C-58.86145724 69.55466907 -57.56743943 67.76640212 -56.25341797 65.99316406 C-55.30619873 64.70104004 -55.30619873 64.70104004 -54.33984375 63.3828125 C-53.76999756 62.62242676 -53.20015137 61.86204102 -52.61303711 61.07861328 C-50.99957297 58.24818738 -50.54324973 55.91824564 -50.25 52.6875 C-50.97984417 50.48607347 -50.97984417 50.48607347 -52.3125 48.4375 C-57.92713048 37.99681074 -63.48473692 24.72069882 -61.25 12.6875 C-60.59 12.0275 -59.93 11.3675 -59.25 10.6875 C-58.26 10.6875 -57.27 10.6875 -56.25 10.6875 C-55.92 9.0375 -55.59 7.3875 -55.25 5.6875 C-53.93 5.6875 -52.61 5.6875 -51.25 5.6875 C-50.981875 6.491875 -50.71375 7.29625 -50.4375 8.125 C-50.045625 8.970625 -49.65375 9.81625 -49.25 10.6875 C-48.26 11.0175 -47.27 11.3475 -46.25 11.6875 C-45.2578125 13.515625 -45.2578125 13.515625 -44.375 15.9375 C-44.03984375 16.82953125 -43.7046875 17.7215625 -43.359375 18.640625 C-42.99328125 19.64609375 -42.6271875 20.6515625 -42.25 21.6875 C-41.38074127 24.02297826 -40.5056746 26.35630252 -39.625 28.6875 C-39.22023438 29.780625 -38.81546875 30.87375 -38.3984375 32 C-37.40919221 34.77655323 -37.40919221 34.77655323 -35.25 36.6875 C-27.59686864 27.72557842 -27.59686864 27.72557842 -20.1875 18.5625 C-4.91146964 -0.68214856 -4.91146964 -0.68214856 0 0 Z " fill="#A666D0" transform="translate(323.25,152.3125)"/>
<path d="M0 0 C11.06534858 -0.02312283 22.13069145 -0.04091478 33.19605923 -0.05181217 C38.33359566 -0.05704113 43.47111563 -0.06413901 48.60864258 -0.07543945 C53.5623141 -0.08626787 58.51596974 -0.09227674 63.46965218 -0.09487724 C65.36397616 -0.09673157 67.25829924 -0.10035234 69.1526165 -0.10573006 C71.79634386 -0.11293989 74.44000471 -0.11399097 77.08374023 -0.11352539 C77.87495773 -0.11712067 78.66617523 -0.12071594 79.48136902 -0.12442017 C84.88594784 -0.11405216 84.88594784 -0.11405216 86 1 C86.08726223 2.78071246 86.10699041 4.5648314 86.09765625 6.34765625 C86.09282227 7.96704102 86.09282227 7.96704102 86.08789062 9.61914062 C86.07532227 11.32360352 86.07532227 11.32360352 86.0625 13.0625 C86.05798828 14.20267578 86.05347656 15.34285156 86.04882812 16.51757812 C86.03699747 19.34510351 86.0205141 22.1725264 86 25 C84.35 25 82.7 25 81 25 C80.58427734 23.82630859 80.58427734 23.82630859 80.16015625 22.62890625 C79.61681641 21.11103516 79.61681641 21.11103516 79.0625 19.5625 C78.70285156 18.55316406 78.34320313 17.54382813 77.97265625 16.50390625 C77.23122361 14.09686255 77.23122361 14.09686255 76 13 C73.62798453 12.87513046 71.28359657 12.81399948 68.90991211 12.79467773 C67.79778603 12.77982834 67.79778603 12.77982834 66.66319275 12.76467896 C64.20127607 12.73297534 61.73934007 12.70827174 59.27734375 12.68359375 C57.57482895 12.66303186 55.87231935 12.6420356 54.16981506 12.62062073 C49.68012691 12.56532101 45.19039208 12.51594672 40.70062256 12.46777344 C36.12263822 12.41761594 31.54472197 12.36189992 26.96679688 12.30664062 C17.9779227 12.19896249 8.9889895 12.09753912 0 12 C0 8.04 0 4.08 0 0 Z " fill="#B26EDF" transform="translate(203,105)"/>
<path d="M0 0 C0.97710937 -0.02578125 1.95421875 -0.0515625 2.9609375 -0.078125 C5.625 0.25 5.625 0.25 7.43359375 1.62890625 C8.79373877 3.47959538 9.23724532 5.00102285 9.625 7.25 C9.728125 6.46625 9.83125 5.6825 9.9375 4.875 C10.625 2.25 10.625 2.25 13.625 0.25 C17.14795483 -0.12478243 18.97381863 -0.16127245 22 1.75 C22.53625 2.245 23.0725 2.74 23.625 3.25 C24.285 2.26 24.945 1.27 25.625 0.25 C28.8828125 -0.04296875 28.8828125 -0.04296875 32.75 0.0625 C34.67199219 0.10310547 34.67199219 0.10310547 36.6328125 0.14453125 C37.62023437 0.17933594 38.60765625 0.21414063 39.625 0.25 C40.285 1.57 40.945 2.89 41.625 4.25 C42.016875 3.59 42.40875 2.93 42.8125 2.25 C44.625 0.25 44.625 0.25 47.3125 0 C48.075625 0.0825 48.83875 0.165 49.625 0.25 C49.89431194 5.13501938 49.0106158 8.84102547 47.375 13.4375 C46.74851562 15.25314453 46.74851562 15.25314453 46.109375 17.10546875 C44.60421059 20.29404072 43.68535495 21.5883229 40.625 23.25 C37.875 23.4375 37.875 23.4375 35.625 23.25 C35.13 21.27 35.13 21.27 34.625 19.25 C35.945 18.59 37.265 17.93 38.625 17.25 C38.4084375 16.70730469 38.191875 16.16460937 37.96875 15.60546875 C37.6903125 14.89003906 37.411875 14.17460937 37.125 13.4375 C36.8465625 12.72980469 36.568125 12.02210938 36.28125 11.29296875 C35.625 9.25 35.625 9.25 35.625 6.25 C33.58616112 6.91423207 33.58616112 6.91423207 31.625 8.25 C30.9256486 10.43541552 30.9256486 10.43541552 30.875 12.875 C30.78992188 14.10089844 30.78992188 14.10089844 30.703125 15.3515625 C30.66445312 16.29128906 30.66445312 16.29128906 30.625 17.25 C26.53617983 18.22945122 22.69861649 18.38391426 18.5 18.375 C17.28054687 18.37757813 16.06109375 18.38015625 14.8046875 18.3828125 C11.625 18.25 11.625 18.25 8.625 17.25 C6.95534549 17.56802943 5.28821482 17.89984951 3.625 18.25 C1.96157163 16.58657163 2.26451903 14.4674291 2.0625 12.1875 C1.97871094 11.26839844 1.89492187 10.34929687 1.80859375 9.40234375 C1.74800781 8.69207031 1.68742188 7.98179687 1.625 7.25 C1.295 7.25 0.965 7.25 0.625 7.25 C0.295 10.55 -0.035 13.85 -0.375 17.25 C-2.03114657 17.63218767 -3.69957024 17.96395102 -5.375 18.25 C-7.19616003 16.42883997 -6.5073508 13.94328236 -6.51171875 11.5234375 C-6.50785156 10.77320313 -6.50398437 10.02296875 -6.5 9.25 C-6.50386719 8.49976563 -6.50773438 7.74953125 -6.51171875 6.9765625 C-6.50012223 0.55209062 -6.3575601 0.10011906 0 0 Z " fill="#19133F" transform="translate(170.375,293.75)"/>
<path d="M0 0 C2.475 0.495 2.475 0.495 5 1 C5 11.23 5 21.46 5 32 C3.35 31.67 1.7 31.34 0 31 C-0.99 29.02 -1.98 27.04 -3 25 C-16.86 24.67 -30.72 24.34 -45 24 C-45 19.71 -45 15.42 -45 11 C-30.81 11 -16.62 11 -2 11 C-1.34 7.37 -0.68 3.74 0 0 Z " fill="#AD6BD9" transform="translate(248,170)"/>
<path d="M0 0 C2.58407757 0.00318961 5.16703659 -0.02053672 7.75097656 -0.0456543 C19.94761317 -0.09201884 30.70420386 1.32081017 42.32128906 5.31567383 C38.6331249 6.47092878 36.2301478 5.88757218 32.51220703 4.86743164 C-9.0611271 -5.60234049 -58.61594396 5.1901071 -94.85058594 26.76879883 C-105.89952067 33.49406831 -116.26961538 40.71217852 -125.68261719 49.62817383 C-127.67871094 51.31567383 -127.67871094 51.31567383 -129.67871094 51.31567383 C-130.33871094 52.63567383 -130.99871094 53.95567383 -131.67871094 55.31567383 C-132.33871094 55.31567383 -132.99871094 55.31567383 -133.67871094 55.31567383 C-134.33871094 56.63567383 -134.99871094 57.95567383 -135.67871094 59.31567383 C-136.33871094 59.31567383 -136.99871094 59.31567383 -137.67871094 59.31567383 C-137.93265625 59.89067627 -138.18660156 60.46567871 -138.44824219 61.05810547 C-139.81779688 63.5708579 -141.40769554 65.35295914 -143.36621094 67.43676758 C-147.61968918 72.1345961 -151.19481101 77.09286919 -154.67871094 82.37817383 C-155.28175049 83.28631836 -155.88479004 84.19446289 -156.50610352 85.13012695 C-160.9127583 91.87953775 -164.72163821 98.76633733 -168.12792969 106.06567383 C-169.67871094 109.31567383 -169.67871094 109.31567383 -171.13964844 111.58129883 C-188.47146563 142.37386745 -192.75643383 191.02118445 -183.54589844 224.61254883 C-182.73118464 228.09159695 -182.67533536 229.11371229 -183.67871094 232.31567383 C-189.09890661 218.76518465 -189.01306688 203.70725755 -188.93945312 189.30444336 C-188.92871689 186.81705371 -188.93943533 184.33038586 -188.95214844 181.84301758 C-188.95965055 173.83550478 -188.69842464 165.93188182 -187.78808594 157.97192383 C-187.7106012 157.28658569 -187.63311646 156.60124756 -187.55328369 155.8951416 C-187.03352404 151.82848135 -186.06273098 148.16722593 -184.67871094 144.31567383 C-184.33690885 142.65476885 -184.02259107 140.98787574 -183.74121094 139.31567383 C-182.96113258 135.20029984 -181.62196525 132.04024459 -179.67871094 128.31567383 C-179.29259996 126.92833716 -178.93965104 125.53144544 -178.61621094 124.12817383 C-177.67871094 120.31567383 -177.67871094 120.31567383 -175.67871094 117.31567383 C-175.23591797 115.97375977 -175.23591797 115.97375977 -174.78417969 114.60473633 C-173.49641381 110.77329155 -171.81629996 107.28948996 -169.99121094 103.69067383 C-169.63599365 102.98845703 -169.28077637 102.28624023 -168.91479492 101.56274414 C-163.38485698 90.73210126 -157.18167773 80.89994305 -149.67871094 71.31567383 C-148.54949219 69.84227539 -148.54949219 69.84227539 -147.39746094 68.33911133 C-143.32083985 63.09563131 -143.32083985 63.09563131 -141.67871094 61.31567383 C-141.01871094 61.31567383 -140.35871094 61.31567383 -139.67871094 61.31567383 C-139.43121094 60.73817383 -139.18371094 60.16067383 -138.92871094 59.56567383 C-137.49571105 56.98627404 -135.89446417 55.25445791 -133.67871094 53.31567383 C-133.01871094 53.31567383 -132.35871094 53.31567383 -131.67871094 53.31567383 C-131.41832031 52.72141602 -131.15792969 52.1271582 -130.88964844 51.51489258 C-121.68288201 34.79421678 -92.66833637 21.47343318 -75.67871094 14.31567383 C-74.27685547 13.72012695 -74.27685547 13.72012695 -72.84667969 13.11254883 C-64.34027027 9.61067828 -55.67824753 6.91415064 -46.74121094 4.75317383 C-45.93103516 4.54499023 -45.12085938 4.33680664 -44.28613281 4.12231445 C-29.7539964 0.60238164 -14.89291792 -0.03832527 0 0 Z " fill="#1B1021" transform="translate(201.6787109375,12.684326171875)"/>
<path d="M0 0 C3.27066566 -0.08706892 6.54103365 -0.14041241 9.8125 -0.1875 C10.74126953 -0.21263672 11.67003906 -0.23777344 12.62695312 -0.26367188 C13.9659668 -0.27817383 13.9659668 -0.27817383 15.33203125 -0.29296875 C16.56530151 -0.31653442 16.56530151 -0.31653442 17.82348633 -0.34057617 C20.50456255 0.07895286 21.3869427 0.85501514 23 3 C23 3.66 23 4.32 23 5 C23.70125 4.175 24.4025 3.35 25.125 2.5 C28 0 28 0 31.3125 -0.3125 C32.199375 -0.209375 33.08625 -0.10625 34 0 C34.495 0.99 34.495 0.99 35 2 C33.80957149 4.08324989 32.42606978 5.97842367 31.03125 7.9296875 C29.80649962 9.92637958 29.80649962 9.92637958 30.2109375 12.06640625 C31.03630402 14.28923803 31.03630402 14.28923803 33.125 17.0625 C34.053125 18.5165625 34.053125 18.5165625 35 20 C34.505 21.485 34.505 21.485 34 23 C27.47692308 22.50769231 27.47692308 22.50769231 25.0625 19.9375 C24.5365625 18.9784375 24.5365625 18.9784375 24 18 C23.443125 18.825 22.88625 19.65 22.3125 20.5 C20 23 20 23 17.25 23.3125 C16.5075 23.209375 15.765 23.10625 15 23 C14 20 14 20 14.99609375 17.73828125 C15.47175781 16.93777344 15.94742188 16.13726562 16.4375 15.3125 C16.91058594 14.50425781 17.38367188 13.69601562 17.87109375 12.86328125 C18.42990234 11.94095703 18.42990234 11.94095703 19 11 C17.60910963 8.3183856 17.60910963 8.3183856 15 6 C11.95743422 5.5548742 9.0534135 5.70640255 6 6 C6 6.66 6 7.32 6 8 C8.31 8 10.62 8 13 8 C13.66 9.32 14.32 10.64 15 12 C14.01 13.485 14.01 13.485 13 15 C9.375 15.1875 9.375 15.1875 6 15 C6 17.31 6 19.62 6 22 C4.34385343 22.38218767 2.67542976 22.71395102 1 23 C0 22 0 22 -0.11352539 19.86694336 C-0.10828857 18.95050049 -0.10305176 18.03405762 -0.09765625 17.08984375 C-0.09443359 16.10048828 -0.09121094 15.11113281 -0.08789062 14.09179688 C-0.07951172 13.05087891 -0.07113281 12.00996094 -0.0625 10.9375 C-0.05798828 9.89271484 -0.05347656 8.84792969 -0.04882812 7.77148438 C-0.03699913 5.1809334 -0.02051689 2.59049441 0 0 Z " fill="#070414" transform="translate(228,289)"/>
<path d="M0 0 C2.1875 0.3125 2.1875 0.3125 4 1 C5.26798493 5.68684801 4.91105063 10.03294937 4.5625 14.8125 C4.51029297 15.60076172 4.45808594 16.38902344 4.40429688 17.20117188 C4.27540731 19.13451529 4.13850506 21.06732164 4 23 C2.35 23.33 0.7 23.66 -1 24 C-1.66 23.01 -2.32 22.02 -3 21 C-3.53238281 21.48984375 -4.06476563 21.9796875 -4.61328125 22.484375 C-7.65933287 24.41869256 -9.60852914 24.33718565 -13.1875 24.25 C-14.25355469 24.23453125 -15.31960937 24.2190625 -16.41796875 24.203125 C-19 24 -19 24 -20 23 C-20.08700342 21.36527118 -20.10701063 19.72685945 -20.09765625 18.08984375 C-20.09443359 17.10048828 -20.09121094 16.11113281 -20.08789062 15.09179688 C-20.07951172 14.05087891 -20.07113281 13.00996094 -20.0625 11.9375 C-20.05798828 10.89271484 -20.05347656 9.84792969 -20.04882812 8.77148438 C-20.03699913 6.1809334 -20.02051689 3.59049441 -20 1 C-17.91695462 0.94581674 -15.83350232 0.90712449 -13.75 0.875 C-12.00976562 0.84019531 -12.00976562 0.84019531 -10.234375 0.8046875 C-7.17213954 0.9896051 -5.55797249 1.39176977 -3 3 C-2.5875 2.484375 -2.175 1.96875 -1.75 1.4375 C-1.1725 0.963125 -0.595 0.48875 0 0 Z M-3 6 C-3.67801034 8.90073181 -3.67801034 8.90073181 -4 12 C-3.34 12.66 -2.68 13.32 -2 14 C-2 11.36 -2 8.72 -2 6 C-2.33 6 -2.66 6 -3 6 Z M-14 7 C-14 7.66 -14 8.32 -14 9 C-12.68 8.67 -11.36 8.34 -10 8 C-11.32 7.67 -12.64 7.34 -14 7 Z M-14 15 C-13.67 15.99 -13.34 16.98 -13 18 C-11.68 17.34 -10.36 16.68 -9 16 C-10.65 15.67 -12.3 15.34 -14 15 Z " fill="#31257D" transform="translate(159,288)"/>
<path d="M0 0 C2.625 -0.1875 2.625 -0.1875 5 0 C5.26931194 4.88501938 4.3856158 8.59102547 2.75 13.1875 C2.12351563 15.00314453 2.12351563 15.00314453 1.484375 16.85546875 C-0.02078941 20.04404072 -0.93964505 21.3383229 -4 23 C-6.75 23.1875 -6.75 23.1875 -9 23 C-9.33 21.68 -9.66 20.36 -10 19 C-8.68 18.34 -7.36 17.68 -6 17 C-6.32484375 16.18595703 -6.32484375 16.18595703 -6.65625 15.35546875 C-6.9346875 14.64003906 -7.213125 13.92460937 -7.5 13.1875 C-7.7784375 12.47980469 -8.056875 11.77210938 -8.34375 11.04296875 C-9 9 -9 9 -9 6 C-11.03883888 6.66423207 -11.03883888 6.66423207 -13 8 C-13.6993514 10.18541552 -13.6993514 10.18541552 -13.75 12.625 C-13.80671875 13.44226563 -13.8634375 14.25953125 -13.921875 15.1015625 C-13.94765625 15.72804688 -13.9734375 16.35453125 -14 17 C-15.32 17 -16.64 17 -18 17 C-18 12.05 -18 7.1 -18 2 C-13.76358987 1.15271797 -10.27587998 0.91615922 -6 1 C-5.67 1.99 -5.34 2.98 -5 4 C-1.72226496 3.24849977 -1.72226496 3.24849977 0 0 Z " fill="#30247B" transform="translate(215,294)"/>
<path d="M0 0 C3.56917061 1.5414201 6.08217769 3.69475459 8.9375 6.3125 C9.82050781 7.12203125 10.70351563 7.9315625 11.61328125 8.765625 C14.13392873 11.12538009 16.59033681 13.52692462 19 16 C19.58007812 16.5465625 20.16015625 17.093125 20.7578125 17.65625 C26.59441038 23.24107307 31.27878828 29.46293762 36 36 C36.72703125 36.9590625 36.72703125 36.9590625 37.46875 37.9375 C41.23693975 42.96175299 44.06684681 48.46105446 47 54 C47.76977858 55.41463696 48.5406853 56.82866041 49.3125 58.2421875 C50.1253674 59.74459294 50.93786771 61.24719706 51.75 62.75 C52.13897461 63.45882324 52.52794922 64.16764648 52.92871094 64.89794922 C55.23420655 69.19986308 56.70261381 73.27223676 58 78 C58.98256261 80.00862409 59.98201378 82.00909466 61 84 C68.28399643 103.89709319 70.17895835 124.67851992 70.1875 145.6875 C70.18838623 146.98888916 70.18927246 148.29027832 70.19018555 149.63110352 C70.15525331 155.53618759 69.92663059 161.15691247 69 167 C68.67 167 68.34 167 68 167 C68.01047363 166.27748047 68.02094727 165.55496094 68.03173828 164.81054688 C68.35080804 139.2365002 67.21622055 115.64011309 60 91 C59.75733398 90.16178711 59.51466797 89.32357422 59.26464844 88.45996094 C49.14978454 54.19185945 27.12453882 23.90516612 0 1 C0 0.67 0 0.34 0 0 Z " fill="#0B070E" transform="translate(317,55)"/>
<path d="M0 0 C0.886875 0.103125 1.77375 0.20625 2.6875 0.3125 C3.0175 0.9725 3.3475 1.6325 3.6875 2.3125 C2.49707149 4.39574989 1.11356978 6.29092367 -0.28125 8.2421875 C-1.50600038 10.23887958 -1.50600038 10.23887958 -1.1015625 12.37890625 C-0.27619598 14.60173803 -0.27619598 14.60173803 1.8125 17.375 C2.43125 18.344375 3.05 19.31375 3.6875 20.3125 C3.3575 21.3025 3.0275 22.2925 2.6875 23.3125 C-3.83557692 22.82019231 -3.83557692 22.82019231 -6.25 20.25 C-6.600625 19.610625 -6.95125 18.97125 -7.3125 18.3125 C-7.89 18.8075 -8.4675 19.3025 -9.0625 19.8125 C-11.3125 21.3125 -11.3125 21.3125 -15.3125 21.3125 C-14.18798273 18.3405615 -13.08956209 15.97809313 -11.3125 13.3125 C-11.57183754 8.64442435 -13.94072309 5.21445557 -16.3125 1.3125 C-14.3325 1.3125 -12.3525 1.3125 -10.3125 1.3125 C-9.6525 2.6325 -8.9925 3.9525 -8.3125 5.3125 C-7.61125 4.4875 -6.91 3.6625 -6.1875 2.8125 C-3.3125 0.3125 -3.3125 0.3125 0 0 Z " fill="#2F2479" transform="translate(259.3125,288.6875)"/>
<path d="M0 0 C6.40535009 -0.0920897 12.80838129 -0.17165177 19.21386719 -0.21972656 C21.39037888 -0.23977764 23.56683714 -0.26702571 25.74316406 -0.30175781 C28.88099393 -0.35056212 32.01810835 -0.37303438 35.15625 -0.390625 C36.12115356 -0.41127014 37.08605713 -0.43191528 38.0802002 -0.45318604 C44.48594332 -0.45528885 48.48238615 0.71894979 54 4 C53.34 4.33 52.68 4.66 52 5 C51.26410645 4.70343506 50.52821289 4.40687012 49.77001953 4.10131836 C40.09588887 0.25502862 27.37983595 1.87261051 17.125 1.9375 C12.46375 1.958125 7.8025 1.97875 3 2 C2.67 14.21 2.34 26.42 2 39 C7.67460506 38.90264786 13.34854967 38.79965953 19.02270508 38.68261719 C20.94972671 38.64452546 22.87681466 38.60963943 24.80395508 38.578125 C27.58699111 38.53204109 30.36957831 38.47412185 33.15234375 38.4140625 C34.42790382 38.39673569 34.42790382 38.39673569 35.72923279 38.37905884 C41.36269203 38.2425811 46.54816486 37.42111221 52 36 C47.39720244 41.14474125 39.55816508 40.55635942 33 41 C27.16644973 41.25266701 21.33773971 41.19239524 15.5 41.125 C10.385 41.08375 5.27 41.0425 0 41 C0 27.47 0 13.94 0 0 Z " fill="#392348" transform="translate(91,186)"/>
<path d="M0 0 C0.5775 0.226875 1.155 0.45375 1.75 0.6875 C0.875 5.4375 0.875 5.4375 -0.25 7.6875 C2.06 8.0175 4.37 8.3475 6.75 8.6875 C7.70024979 12.38291586 7.70024979 14.99208414 6.75 18.6875 C6.09 18.3575 5.43 18.0275 4.75 17.6875 C5.08 17.0275 5.41 16.3675 5.75 15.6875 C4.1 16.3475 2.45 17.0075 0.75 17.6875 C2.125 15.6875 2.125 15.6875 3.75 13.6875 C4.41 13.6875 5.07 13.6875 5.75 13.6875 C5.75 13.0275 5.75 12.3675 5.75 11.6875 C-0.43072033 14.71479159 -3.9278846 18.40937766 -8.25 23.6875 C-10.34335733 26.17592376 -12.45284238 28.65039641 -14.5625 31.125 C-15.09061279 31.7526123 -15.61872559 32.38022461 -16.1628418 33.02685547 C-20.02471927 37.57485964 -20.02471927 37.57485964 -22.25 38.6875 C-20.5981592 34.77027753 -17.94587681 31.79652162 -15.1875 28.625 C-14.19843174 27.47333168 -13.21016412 26.32097532 -12.22265625 25.16796875 C-11.72652832 24.58966309 -11.23040039 24.01135742 -10.71923828 23.41552734 C-7.73206667 19.90220055 -4.83683489 16.31399421 -1.9296875 12.734375 C-0.25 10.6875 -0.25 10.6875 0.75 9.6875 C-0.24 9.0275 -1.23 8.3675 -2.25 7.6875 C-1.59 5.7075 -0.93 3.7275 -0.25 1.6875 C-6.41535791 6.1612291 -11.46000592 10.78313581 -16.25 16.6875 C-17.28746195 17.94946418 -18.32525334 19.21115756 -19.36328125 20.47265625 C-24.39540955 26.61388625 -29.37227606 32.74058094 -33.96850586 39.21875 C-34.39139893 39.7034375 -34.81429199 40.188125 -35.25 40.6875 C-35.91 40.6875 -36.57 40.6875 -37.25 40.6875 C-37.91 39.0375 -38.57 37.3875 -39.25 35.6875 C-40.24 36.1825 -40.24 36.1825 -41.25 36.6875 C-42.02403558 32.62381321 -42.3484702 28.82324827 -42.25 24.6875 C-39.38546142 28.09766497 -37.90296434 31.59444544 -36.25 35.6875 C-35.59 35.6875 -34.93 35.6875 -34.25 35.6875 C-32.75868057 34.20788054 -32.75868057 34.20788054 -31.23828125 32.25 C-30.64466797 31.51910156 -30.05105469 30.78820312 -29.43945312 30.03515625 C-28.82005859 29.26042969 -28.20066406 28.48570312 -27.5625 27.6875 C-23.3906557 22.51638472 -19.18206169 17.40492794 -14.78344727 12.42431641 C-13.56819298 11.04789243 -12.3690546 9.65724182 -11.17578125 8.26171875 C-10.64339844 7.63910156 -10.11101562 7.01648438 -9.5625 6.375 C-8.75232422 5.42173828 -8.75232422 5.42173828 -7.92578125 4.44921875 C-3.26256732 -0.45313435 -3.26256732 -0.45313435 0 0 Z " fill="#2A1A34" transform="translate(323.25,152.3125)"/>
<path d="M0 0 C0 3.35342352 -0.67868813 4.58612618 -2.24609375 7.49609375 C-5.01365059 12.87620864 -7.10767338 18.34348883 -9.0625 24.0625 C-9.40684082 25.06692139 -9.75118164 26.07134277 -10.10595703 27.10620117 C-20.04673423 56.67189025 -24.2093456 92.87253368 -15.8671875 123.296875 C-15.0524737 126.77592312 -14.99662442 127.79803846 -16 131 C-21.42019567 117.44951083 -21.33435594 102.39158373 -21.26074219 87.98876953 C-21.25000596 85.50137988 -21.26072439 83.01471203 -21.2734375 80.52734375 C-21.28093961 72.51983095 -21.0197137 64.61620799 -20.109375 56.65625 C-20.03189026 55.97091187 -19.95440552 55.28557373 -19.87457275 54.57946777 C-19.35481311 50.51280752 -18.38402004 46.8515521 -17 43 C-16.65819791 41.33909502 -16.34388013 39.67220192 -16.0625 38 C-15.28242165 33.88462601 -13.94325431 30.72457076 -12 27 C-11.61388903 25.61266333 -11.2609401 24.21577161 -10.9375 22.8125 C-10 19 -10 19 -8 16 C-7.71125 15.13375 -7.4225 14.2675 -7.125 13.375 C-6.18954112 10.56862335 -5.16534228 7.9023159 -4 5.1875 C-3.67 4.41792969 -3.34 3.64835937 -3 2.85546875 C-2 1 -2 1 0 0 Z " fill="#170E1D" transform="translate(34,114)"/>
<path d="M0 0 C0.66 0 1.32 0 2 0 C2.5878125 1.485 2.5878125 1.485 3.1875 3 C4.70921578 6.5674186 6.64828859 9.70746781 8.73828125 12.96484375 C12.27469948 18.66909731 14.74855407 24.6959514 17 31 C17.66 30.34 18.32 29.68 19 29 C19.99 30.32 20.98 31.64 22 33 C19.03 33.495 19.03 33.495 16 34 C13.49816406 29.85903016 11.66297891 26.04232683 10.05859375 21.46484375 C7.58973544 15.71632127 4.17978781 10.37769341 1 5 C0.34 5 -0.32 5 -1 5 C-2.4432174 6.71569206 -3.8038685 8.50112283 -5.125 10.3125 C-5.52460938 10.85575928 -5.92421875 11.39901855 -6.3359375 11.95874023 C-8.2596259 14.57984177 -10.15742891 17.21908358 -12.0546875 19.859375 C-25.4598384 38.4866128 -25.4598384 38.4866128 -30 40 C-32.34406932 39.37212429 -34.67793475 38.70491267 -37 38 C-37.99 38 -38.98 38 -40 38 C-40.68041782 32.72676192 -38.24786337 28.60611289 -36 24 C-34.68461673 28.15771494 -35.65566932 30.8879297 -37 35 C-35.02 34.505 -35.02 34.505 -33 34 C-33.33 35.32 -33.66 36.64 -34 38 C-32.68 37.34 -31.36 36.68 -30 36 C-30 36.66 -30 37.32 -30 38 C-26.32247265 34.45404787 -23.06511209 30.73020037 -19.9375 26.6875 C-19.47287354 26.09155029 -19.00824707 25.49560059 -18.52954102 24.8815918 C-8.96336896 12.65982179 -8.96336896 12.65982179 0 0 Z " fill="#23152C" transform="translate(284,222)"/>
<path d="M0 0 C5.51762976 -0.02292644 11.03509497 -0.04284851 16.55273438 -0.05493164 C18.43066975 -0.05996763 20.3086012 -0.06679671 22.18652344 -0.07543945 C24.88217132 -0.08753713 27.57776747 -0.09323557 30.2734375 -0.09765625 C31.11619232 -0.10281754 31.95894714 -0.10797882 32.82723999 -0.11329651 C38.77225659 -0.11387171 38.77225659 -0.11387171 41 1 C41 1.66 41 2.32 41 3 C21.695 2.505 21.695 2.505 2 2 C2 13.55 2 25.1 2 37 C13.22 37 24.44 37 36 37 C36 37.33 36 37.66 36 38 C24.12 38 12.24 38 0 38 C0 25.46 0 12.92 0 0 Z " fill="#09050D" transform="translate(91,124)"/>
<path d="M0 0 C1.26798493 4.68684801 0.91105063 9.03294937 0.5625 13.8125 C0.51029297 14.60076172 0.45808594 15.38902344 0.40429688 16.20117188 C0.27540731 18.13451529 0.13850506 20.06732164 0 22 C-1.65 22.33 -3.3 22.66 -5 23 C-5.66 22.01 -6.32 21.02 -7 20 C-7.53109375 20.49113281 -8.0621875 20.98226563 -8.609375 21.48828125 C-11.68015462 23.43009777 -13.64921396 23.30491694 -17.25 23.1875 C-18.86648437 23.14689453 -18.86648437 23.14689453 -20.515625 23.10546875 C-21.74539062 23.05326172 -21.74539062 23.05326172 -23 23 C-23 22.67 -23 22.34 -23 22 C-22.24074219 21.95101563 -21.48148438 21.90203125 -20.69921875 21.8515625 C-19.70535156 21.77679688 -18.71148437 21.70203125 -17.6875 21.625 C-16.70136719 21.55539062 -15.71523437 21.48578125 -14.69921875 21.4140625 C-11.78471567 21.16134528 -11.78471567 21.16134528 -9 19 C-8.26393501 15.43230448 -8.26393501 15.43230448 -8 12 C-8.99 11.67 -9.98 11.34 -11 11 C-10.34 10.34 -9.68 9.68 -9 9 C-8.1526187 6.69088595 -7.47578656 4.35525327 -6.78125 1.99609375 C-5.32877837 -1.71497127 -3.30930889 -0.99279267 0 0 Z M-7 5 C-7.67801034 7.90073181 -7.67801034 7.90073181 -8 11 C-7.34 11.66 -6.68 12.32 -6 13 C-6 10.36 -6 7.72 -6 5 C-6.33 5 -6.66 5 -7 5 Z " fill="#09071B" transform="translate(163,289)"/>
<path d="M0 0 C4.43895554 -0.35991531 4.43895554 -0.35991531 6.65625 1.0625 C8.71722894 4.03414405 8.28541354 6.62997456 8.1875 10.1875 C8.16042969 11.45980469 8.13335937 12.73210937 8.10546875 14.04296875 C8.07066406 15.01878906 8.03585938 15.99460937 8 17 C6.35 16.67 4.7 16.34 3 16 C2.67 12.7 2.34 9.4 2 6 C1.67 6 1.34 6 1 6 C0.67 9.3 0.34 12.6 0 16 C-1.65 16.33 -3.3 16.66 -5 17 C-5 11.72 -5 6.44 -5 1 C-2.525 1.495 -2.525 1.495 0 2 C0 1.34 0 0.68 0 0 Z " fill="#2B206D" transform="translate(170,295)"/>
<path d="M0 0 C1 3 1 3 0.06640625 4.875 C-0.42988281 5.57625 -0.92617188 6.2775 -1.4375 7 C-2.00082031 7.80050781 -2.56414062 8.60101563 -3.14453125 9.42578125 C-4.06298828 10.70001953 -4.06298828 10.70001953 -5 12 C-5.58136719 12.83917969 -6.16273438 13.67835938 -6.76171875 14.54296875 C-10.70972869 20.14632877 -14.94814281 25.45967449 -19.375 30.6875 C-19.89916504 31.31229248 -20.42333008 31.93708496 -20.96337891 32.58081055 C-22.26337284 34.0942205 -23.62671425 35.5527681 -25 37 C-25.66 37 -26.32 37 -27 37 C-27.23203125 37.56460938 -27.4640625 38.12921875 -27.703125 38.7109375 C-32.77413678 47.66157877 -44.02065682 54.16059385 -52.39013672 59.89111328 C-53.86734013 60.90862282 -55.32720057 61.95119144 -56.78515625 62.99609375 C-57.97431641 63.83333984 -57.97431641 63.83333984 -59.1875 64.6875 C-59.86167969 65.16574219 -60.53585937 65.64398438 -61.23046875 66.13671875 C-63 67 -63 67 -66 66 C-65.03320312 65.3709375 -64.06640625 64.741875 -63.0703125 64.09375 C-53.89335238 58.07816286 -45.2587155 51.74329966 -37 44.5 C-34 42 -34 42 -32 42 C-31.34 40.68 -30.68 39.36 -30 38 C-29.34 38 -28.68 38 -28 38 C-27.34 36.68 -26.68 35.36 -26 34 C-25.34 34 -24.68 34 -24 34 C-23.76667969 33.45601563 -23.53335938 32.91203125 -23.29296875 32.3515625 C-21.64019846 29.34561775 -19.55121666 26.97369407 -17.3125 24.375 C-10.80638837 16.71190698 -5.23994418 8.57445411 0 0 Z " fill="#150C1A" transform="translate(360,294)"/>
<path d="M0 0 C0.66 0.66 1.32 1.32 2 2 C1.9765625 4.8203125 1.9765625 4.8203125 1.625 8.125 C1.45871094 9.76855469 1.45871094 9.76855469 1.2890625 11.4453125 C1.19367188 12.28835938 1.09828125 13.13140625 1 14 C-0.45823212 14.0270043 -1.91660675 14.04639787 -3.375 14.0625 C-4.18710938 14.07410156 -4.99921875 14.08570313 -5.8359375 14.09765625 C-8 14 -8 14 -10 13 C-10 11.02 -10 9.04 -10 7 C-6.91190305 5.23537317 -5.76687864 5 -2 5 C-2 4.34 -2 3.68 -2 3 C-4.64 3.33 -7.28 3.66 -10 4 C-7.57116875 -1.37812634 -5.64578748 -1.2938263 0 0 Z " fill="#3E2F9F" transform="translate(191,296)"/>
<path d="M0 0 C4.29 0 8.58 0 13 0 C13 1.32 13 2.64 13 4 C9.7 4 6.4 4 3 4 C3 5.65 3 7.3 3 9 C5.97 9 8.94 9 12 9 C12 9.99 12 10.98 12 12 C9.03 12 6.06 12 3 12 C3 14.64 3 17.28 3 20 C2.01 20 1.02 20 0 20 C0 13.4 0 6.8 0 0 Z " fill="#4333AB" transform="translate(229,290)"/>
<path d="M0 0 C4.77875158 3.18583439 5.57410578 7.90924656 6.6875 13.375 C7.69324481 25.04163981 6.96113784 37.47243177 -0.60546875 47.02734375 C-3.51204605 50.45450206 -6.32395758 53.39041384 -10 56 C-8.68 56.99 -7.36 57.98 -6 59 C-7.8871875 58.814375 -7.8871875 58.814375 -9.8125 58.625 C-10.52019531 58.55539063 -11.22789062 58.48578125 -11.95703125 58.4140625 C-14 58 -14 58 -17 56 C-16.22076172 55.65388672 -16.22076172 55.65388672 -15.42578125 55.30078125 C-10.76447509 53.12090979 -7.44495881 50.92342532 -4 47 C-3.319375 46.319375 -2.63875 45.63875 -1.9375 44.9375 C4.53264527 35.12792492 5.42390455 23.4295723 4 12 C3.1886435 9.04134657 2.24329711 6.48659421 0.875 3.75 C0 2 0 2 0 0 Z " fill="#1B1022" transform="translate(169,115)"/>
<path d="M0 0 C6.10369242 9.15553863 5.23470793 22.13886853 3.34765625 32.625 C-0.49001027 45.2744759 -8.05621348 53.16476541 -19.5 59.3515625 C-25.84057216 62.41756285 -25.84057216 62.41756285 -30 61 C-28.65808594 60.50693359 -28.65808594 60.50693359 -27.2890625 60.00390625 C-15.72668641 55.4553809 -6.24456356 49.26086595 -0.8828125 37.5625 C1.54647129 31.39714528 2.36071939 25.74872529 2.375 19.1875 C2.37741699 18.13018677 2.37741699 18.13018677 2.37988281 17.05151367 C2.28124605 12.40298228 1.33567662 8.42910368 0 4 C0 2.68 0 1.36 0 0 Z " fill="#1F1327" transform="translate(179,189)"/>
<path d="M0 0 C0.99 0.33 1.98 0.66 3 1 C2.03900391 1.72703125 2.03900391 1.72703125 1.05859375 2.46875 C-4.66515431 6.90444149 -9.45760939 11.38269253 -14 17 C-15.03596856 18.26081926 -16.07247905 19.52119332 -17.109375 20.78125 C-22.14322635 26.92347885 -27.12119866 33.0515624 -31.71850586 39.53125 C-32.14139893 40.0159375 -32.56429199 40.500625 -33 41 C-33.66 41 -34.32 41 -35 41 C-35.66 39.35 -36.32 37.7 -37 36 C-37.99 36.495 -37.99 36.495 -39 37 C-39.77403558 32.93631321 -40.0984702 29.13574827 -40 25 C-37.13546142 28.41016497 -35.65296434 31.90694544 -34 36 C-33.34 36 -32.68 36 -32 36 C-30.50868057 34.52038054 -30.50868057 34.52038054 -28.98828125 32.5625 C-28.39466797 31.83160156 -27.80105469 31.10070312 -27.18945312 30.34765625 C-26.57005859 29.57292969 -25.95066406 28.79820312 -25.3125 28 C-21.1406557 22.82888472 -16.93206169 17.71742794 -12.53344727 12.73681641 C-11.31819298 11.36039243 -10.1190546 9.96974182 -8.92578125 8.57421875 C-8.39339844 7.95160156 -7.86101562 7.32898438 -7.3125 6.6875 C-6.50232422 5.73423828 -6.50232422 5.73423828 -5.67578125 4.76171875 C-3.88549202 2.87961982 -2.22166171 1.35403051 0 0 Z " fill="#110A16" transform="translate(321,152)"/>
<path d="M0 0 C0.66 0.33 1.32 0.66 2 1 C-4.03321813 7.63226107 -10.10884239 14.20985506 -16.4375 20.5625 C-16.92057617 21.05008789 -17.40365234 21.53767578 -17.90136719 22.04003906 C-20.78653363 24.91319232 -23.80265521 27.48396861 -27 30 C-28.68528688 31.64783606 -30.35697047 33.31002677 -32 35 C-28.13413418 26.41579538 -20.6176162 19.42772981 -14.0625 12.8125 C-13.49490967 12.2357251 -12.92731934 11.6589502 -12.3425293 11.06469727 C-8.24696873 7 -8.24696873 7 -6 7 C-6 6.34 -6 5.68 -6 5 C-4.04072937 3.2856382 -2.04119788 1.61594832 0 0 Z " fill="#5E3A76" transform="translate(72,44)"/>
<path d="M0 0 C3.56917061 1.5414201 6.08217769 3.69475459 8.9375 6.3125 C9.82050781 7.12203125 10.70351563 7.9315625 11.61328125 8.765625 C14.13392873 11.12538009 16.59033681 13.52692462 19 16 C19.58007812 16.5465625 20.16015625 17.093125 20.7578125 17.65625 C26.59379213 23.24048149 31.28216521 29.46140387 36 36 C36.83144531 37.11568359 36.83144531 37.11568359 37.6796875 38.25390625 C41 42.74664548 41 42.74664548 41 45 C37.17666876 43.72555625 36.81564136 42.42579995 34.8125 39 C31.381574 33.41661938 27.44791969 28.78394543 23 24 C21.85017228 22.67010977 20.70422814 21.33685027 19.5625 20 C14.41050197 14.10864917 8.91877911 8.55085792 2.9375 3.5 C1.968125 2.675 0.99875 1.85 0 1 C0 0.67 0 0.34 0 0 Z " fill="#160E1C" transform="translate(317,55)"/>
<path d="M0 0 C0.33 0 0.66 0 1 0 C1.02465504 4.39656173 1.04283842 8.7930872 1.05493164 13.18969727 C1.05997121 14.68644918 1.06680287 16.18319616 1.07543945 17.67993164 C1.08752159 19.82699807 1.09323191 21.97399962 1.09765625 24.12109375 C1.10289307 25.4145874 1.10812988 26.70808105 1.11352539 28.04077148 C1 31 1 31 0 32 C-1.66617115 32.04063832 -3.33388095 32.042721 -5 32 C-6.32 29.36 -7.64 26.72 -9 24 C-28.8 23.505 -28.8 23.505 -49 23 C-49 22.67 -49 22.34 -49 22 C-43.21595259 21.90119885 -37.43239516 21.8285637 -31.64770508 21.78027344 C-29.6795191 21.76014519 -27.71139301 21.73283981 -25.7434082 21.69824219 C-22.9160282 21.64977689 -20.08943799 21.62704382 -17.26171875 21.609375 C-16.38037766 21.58872986 -15.49903656 21.56808472 -14.59098816 21.54681396 C-8.49991818 21.54457145 -8.49991818 21.54457145 -5.98364258 23.83691406 C-5 26 -5 26 -4 29 C-2.68 29.33 -1.36 29.66 0 30 C0 20.1 0 10.2 0 0 Z " fill="#09050B" transform="translate(253,172)"/>
<path d="M0 0 C0 4.08658336 -1.50496058 4.90016906 -4.3125 7.8125 C-8.81903832 12.59223556 -12.93276321 17.57970589 -16.93579102 22.78613281 C-19.13513257 25.64201185 -21.35541693 28.44764665 -23.73046875 31.16015625 C-24.56191406 32.11792969 -25.39335937 33.07570312 -26.25 34.0625 C-26.99765625 34.89910156 -27.7453125 35.73570312 -28.515625 36.59765625 C-30.2748265 38.91022867 -30.2748265 38.91022867 -29.76953125 41.6640625 C-29.38861328 42.82035156 -29.38861328 42.82035156 -29 44 C-28.814375 44.763125 -28.62875 45.52625 -28.4375 46.3125 C-28.293125 46.869375 -28.14875 47.42625 -28 48 C-30.24700744 46.042929 -31.7917739 44.50831665 -32.9296875 41.73046875 C-33.03334253 37.70519828 -30.79440237 35.78341803 -28.1875 33 C-27.16664257 31.85650764 -26.14848031 30.71060434 -25.1328125 29.5625 C-24.61106445 28.97726563 -24.08931641 28.39203125 -23.55175781 27.7890625 C-21.09462528 24.95616961 -18.82531028 21.98889411 -16.5625 19 C-15.04378128 16.99839378 -13.52312605 14.9982545 -12 13 C-11.28714844 12.05125 -10.57429688 11.1025 -9.83984375 10.125 C-9.23269531 9.42375 -8.62554687 8.7225 -8 8 C-7.34 8 -6.68 8 -6 8 C-5.7525 7.4225 -5.505 6.845 -5.25 6.25 C-3.83316683 3.6997003 -2.12372463 1.98214299 0 0 Z " fill="#1D1225" transform="translate(327,171)"/>
<path d="M0 0 C5.51762976 -0.02292644 11.03509497 -0.04284851 16.55273438 -0.05493164 C18.43066975 -0.05996763 20.3086012 -0.06679671 22.18652344 -0.07543945 C24.88217132 -0.08753713 27.57776747 -0.09323557 30.2734375 -0.09765625 C31.11619232 -0.10281754 31.95894714 -0.10797882 32.82723999 -0.11329651 C38.77225659 -0.11387171 38.77225659 -0.11387171 41 1 C41 1.66 41 2.32 41 3 C39.68 3 38.36 3 37 3 C37 2.34 37 1.68 37 1 C25.12 1 13.24 1 1 1 C1 13.21 1 25.42 1 38 C0.67 38 0.34 38 0 38 C0 25.46 0 12.92 0 0 Z " fill="#3E264D" transform="translate(91,124)"/>
<path d="M0 0 C2.94134142 3.54958178 4.80792028 7.41859739 6.75 11.5625 C7.07871094 12.23474609 7.40742188 12.90699219 7.74609375 13.59960938 C10.11943251 18.64170248 10.11943251 18.64170248 9 22 C8.34 20.02 7.68 18.04 7 16 C6.34 16 5.68 16 5 16 C5.33 17.32 5.66 18.64 6 20 C2.18469372 16.72973747 -0.40632712 12.76146436 -2 8 C-1 5 -1 5 0 4 C0 2.68 0 1.36 0 0 Z " fill="#744892" transform="translate(299,219)"/>
<path d="M0 0 C0.33 0 0.66 0 1 0 C1 6.6 1 13.2 1 20 C1.99 20 2.98 20 4 20 C4 17.36 4 14.72 4 12 C6.97 12 9.94 12 13 12 C13 11.01 13 10.02 13 9 C10.03 9 7.06 9 4 9 C4 7.35 4 5.7 4 4 C4.33 5.32 4.66 6.64 5 8 C7.97 8 10.94 8 14 8 C14.33 8.99 14.66 9.98 15 11 C14.01 12.485 14.01 12.485 13 14 C9.375 14.1875 9.375 14.1875 6 14 C6 16.31 6 18.62 6 21 C4.34385343 21.38218767 2.67542976 21.71395102 1 22 C0 21 0 21 -0.11352539 18.95874023 C-0.10828857 18.08419189 -0.10305176 17.20964355 -0.09765625 16.30859375 C-0.09443359 15.36435547 -0.09121094 14.42011719 -0.08789062 13.44726562 C-0.07951172 12.45404297 -0.07113281 11.46082031 -0.0625 10.4375 C-0.05798828 9.44041016 -0.05347656 8.44332031 -0.04882812 7.41601562 C-0.03700007 4.94395151 -0.02051849 2.47200482 0 0 Z " fill="#1D164A" transform="translate(228,290)"/>
<path d="M0 0 C4.62 0 9.24 0 14 0 C14.33 1.32 14.66 2.64 15 4 C14.34 3.34 13.68 2.68 13 2 C8.34805286 1.65783765 8.34805286 1.65783765 4 3 C3.01 2.67 2.02 2.34 1 2 C1 6.95 1 11.9 1 17 C1.99 17.33 2.98 17.66 4 18 C2.02 17.67 0.04 17.34 -2 17 C-2.05470352 15.29203442 -2.09310718 13.58354375 -2.125 11.875 C-2.14820313 10.92367188 -2.17140625 9.97234375 -2.1953125 8.9921875 C-2 6 -2 6 0 0 Z " fill="#0B081C" transform="translate(196,294)"/>
<path d="M0 0 C1.65 0 3.3 0 5 0 C4.01 0.33 3.02 0.66 2 1 C2.33 1.99 2.66 2.98 3 4 C1.68 4 0.36 4 -1 4 C-0.979375 5.051875 -0.95875 6.10375 -0.9375 7.1875 C-0.98896802 10.32704904 -1.26517187 12.96883396 -2 16 C-2.99 16 -3.98 16 -5 16 C-5 11.05 -5 6.1 -5 1 C-2.525 1.495 -2.525 1.495 0 2 C0 1.34 0 0.68 0 0 Z " fill="#3E2E9D" transform="translate(170,295)"/>
<path d="M0 0 C0.33 0.66 0.66 1.32 1 2 C1.66 2 2.32 2 3 2 C3.23187012 2.52956299 3.46374023 3.05912598 3.70263672 3.60473633 C4.75715416 6.00862504 5.81602611 8.41057134 6.875 10.8125 C7.23980469 11.64587891 7.60460937 12.47925781 7.98046875 13.33789062 C8.33496094 14.14033203 8.68945312 14.94277344 9.0546875 15.76953125 C9.37937012 16.50792236 9.70405273 17.24631348 10.03857422 18.00708008 C11.05653856 20.23438861 11.05653856 20.23438861 13 23 C12.67 23.99 12.34 24.98 12 26 C7.495327 22.35770809 5.86457762 17.65737402 3.75 12.4375 C3.20472656 11.14295898 3.20472656 11.14295898 2.6484375 9.82226562 C0 3.41523731 0 3.41523731 0 0 Z " fill="#4B2E5E" transform="translate(265,180)"/>
<path d="M0 0 C0.38281159 5.23175837 -0.78145293 8.37802694 -3 13 C-4 10 -4 10 -4 6 C-4.99 7.98 -5.98 9.96 -7 12 C-9.16551116 8.75173326 -9.55156953 7.76905843 -9 4 C-6.32031823 0.3278435 -4.49792702 -0.49976967 0 0 Z " fill="#1D164B" transform="translate(220,294)"/>
<path d="M0 0 C1.32 0 2.64 0 4 0 C4 5.28 4 10.56 4 16 C2.68 16 1.36 16 0 16 C0 10.72 0 5.44 0 0 Z " fill="#3D2E9B" transform="translate(158,296)"/>
<path d="M0 0 C0 3.34538771 -0.66018243 4.53431401 -2.23046875 7.4296875 C-5.1788417 13.151715 -7.26965152 19.03134193 -9.3125 25.125 C-9.67150391 26.176875 -10.03050781 27.22875 -10.40039062 28.3125 C-11.27326303 30.87292573 -12.13966244 33.43534112 -13 36 C-13.33 36 -13.66 36 -14 36 C-13.24318777 29.0373275 -11.92513415 21.88770122 -8 16 C-7.71125 15.13375 -7.4225 14.2675 -7.125 13.375 C-6.18954112 10.56862335 -5.16534228 7.9023159 -4 5.1875 C-3.67 4.41792969 -3.34 3.64835937 -3 2.85546875 C-2 1 -2 1 0 0 Z " fill="#0F0912" transform="translate(34,114)"/>
<path d="M0 0 C2.31 0 4.62 0 7 0 C7 0.99 7 1.98 7 3 C6.01 3 5.02 3 4 3 C3.67 6.96 3.34 10.92 3 15 C2.01 15 1.02 15 0 15 C0 10.05 0 5.1 0 0 Z " fill="#4333AB" transform="translate(197,296)"/>
<path d="M0 0 C0.97710937 -0.02578125 1.95421875 -0.0515625 2.9609375 -0.078125 C5.625 0.25 5.625 0.25 7.42578125 1.38671875 C9.11315454 4.00846813 9.21576097 6.21942847 9.4375 9.3125 C9.52644531 10.37597656 9.61539063 11.43945312 9.70703125 12.53515625 C9.625 15.25 9.625 15.25 7.625 17.25 C7.57601562 16.33476562 7.52703125 15.41953125 7.4765625 14.4765625 C7.36441406 12.69378906 7.36441406 12.69378906 7.25 10.875 C7.18039063 9.69164062 7.11078125 8.50828125 7.0390625 7.2890625 C6.92282654 4.14437681 6.92282654 4.14437681 4.625 2.25 C2.05438689 1.60232207 2.05438689 1.60232207 -0.375 1.25 C-0.375 1.91 -0.375 2.57 -0.375 3.25 C-2.025 2.92 -3.675 2.59 -5.375 2.25 C-5.375 7.2 -5.375 12.15 -5.375 17.25 C-5.705 17.25 -6.035 17.25 -6.375 17.25 C-6.40184679 14.60409986 -6.42176357 11.95846904 -6.4375 9.3125 C-6.44587891 8.55775391 -6.45425781 7.80300781 -6.46289062 7.02539062 C-6.47152441 5.10005687 -6.42724333 3.17464419 -6.375 1.25 C-4.64280072 -0.48219928 -2.35473192 0.03708239 0 0 Z " fill="#0E0A24" transform="translate(170.375,293.75)"/>
<path d="M0 0 C1.134375 0.020625 2.26875 0.04125 3.4375 0.0625 C3.1075 0.7225 2.7775 1.3825 2.4375 2.0625 C1.4475 2.3925 0.4575 2.7225 -0.5625 3.0625 C-0.5625 3.7225 -0.5625 4.3825 -0.5625 5.0625 C2.39925123 4.44972388 3.81808783 3.80877478 6.4375 2.0625 C6.4375 4.0425 6.4375 6.0225 6.4375 8.0625 C4.97926788 8.0895043 3.52089325 8.10889787 2.0625 8.125 C1.25039062 8.13660156 0.43828125 8.14820313 -0.3984375 8.16015625 C-2.5625 8.0625 -2.5625 8.0625 -4.5625 7.0625 C-4.60504356 5.06295254 -4.60330783 3.06208364 -4.5625 1.0625 C-3.5625 0.0625 -3.5625 0.0625 0 0 Z " fill="#4332A9" transform="translate(185.5625,301.9375)"/>
<path d="M0 0 C4.455 0.99 4.455 0.99 9 2 C9.33 3.65 9.66 5.3 10 7 C6.7 7 3.4 7 0 7 C0 4.69 0 2.38 0 0 Z " fill="#AB6AD8" transform="translate(203,275)"/>
<path d="M0 0 C2.67230272 4.81014489 3.12677837 9.29244544 3.09765625 14.73828125 C3.09443359 15.80498047 3.09121094 16.87167969 3.08789062 17.97070312 C3.07951172 19.07349609 3.07113281 20.17628906 3.0625 21.3125 C3.05798828 22.43462891 3.05347656 23.55675781 3.04882812 24.71289062 C3.03707313 27.4753151 3.02064077 30.23762998 3 33 C2.67 33 2.34 33 2 33 C0.76776094 21.96485916 -0.36520833 11.11856481 0 0 Z " fill="#4E3062" transform="translate(397,162)"/>
<path d="M0 0 C0.66 0 1.32 0 2 0 C4.71970716 5.25184831 7.01095551 10.43067543 9 16 C9.66 15.34 10.32 14.68 11 14 C11.99 15.32 12.98 16.64 14 18 C12.02 18.33 10.04 18.66 8 19 C4.32947452 12.92464747 1.64177657 6.92001154 0 0 Z " fill="#1E1225" transform="translate(292,237)"/>
<path d="M0 0 C4.43620092 3.55669268 5.64639784 7.7720303 7.3125 13 C7.58900391 13.80695313 7.86550781 14.61390625 8.15039062 15.4453125 C10.30125031 22.01166499 10.30125031 22.01166499 9 26 C9 25.01 9 24.02 9 23 C8.34 23 7.68 23 7 23 C6.01885373 19.91729306 5.04043123 16.83372822 4.0625 13.75 C3.78470703 12.87730469 3.50691406 12.00460938 3.22070312 11.10546875 C2.81948242 9.83896484 2.81948242 9.83896484 2.41015625 8.546875 C2.16402588 7.77182617 1.91789551 6.99677734 1.66430664 6.19824219 C1.04348477 4.14389446 0.50083599 2.08647028 0 0 Z " fill="#1B1122" transform="translate(372,130)"/>
<path d="M0 0 C2.86453858 3.41016497 4.34703566 6.90694544 6 11 C8.32357511 11.18490007 8.32357511 11.18490007 11 9 C9.79618552 11.49361571 8.54571278 13.68143083 7 16 C6.34 16 5.68 16 5 16 C4.34 14.35 3.68 12.7 3 11 C2.01 11.495 2.01 11.495 1 12 C0.22596442 7.93631321 -0.0984702 4.13574827 0 0 Z " fill="#130B18" transform="translate(281,177)"/>
<path d="M0 0 C-5.91011403 3.40968117 -12.26234155 3.13535132 -18.875 3.0625 C-19.65875 3.05798828 -20.4425 3.05347656 -21.25 3.04882812 C-23.16670014 3.03714093 -25.08336048 3.01920908 -27 3 C-27 2.67 -27 2.34 -27 2 C-17.87995448 0.46859805 -9.25599658 -0.27675737 0 0 Z " fill="#4D2F61" transform="translate(238,397)"/>
<path d="M0 0 C-0.57344937 2.86724686 -0.8614515 3.8614515 -3 6 C-3.66 6 -4.32 6 -5 6 C-6.59108002 7.44748074 -8.12559489 8.95775474 -9.625 10.5 C-10.44226563 11.3353125 -11.25953125 12.170625 -12.1015625 13.03125 C-12.72804688 13.6809375 -13.35453125 14.330625 -14 15 C-14.66 14.67 -15.32 14.34 -16 14 C-14.42100123 12.22513306 -12.83707231 10.45512408 -11.25 8.6875 C-10.8065625 8.18798828 -10.363125 7.68847656 -9.90625 7.17382812 C-3.44505381 0 -3.44505381 0 0 0 Z " fill="#9C60C3" transform="translate(323,154)"/>
<path d="M0 0 C2.3125 0.0625 2.3125 0.0625 5 1 C6.875 4.375 6.875 4.375 8 8 C7.67 8.99 7.34 9.98 7 11 C3.17330957 7.57611908 1.27721526 4.99275057 0 0 Z " fill="#8D57B2" transform="translate(292,215)"/>
<path d="M0 0 C4.63954425 -0.18194291 7.77614168 0.14562318 12 2 C13.33041174 2.30471598 14.66409789 2.59533451 16 2.875 C19.77795971 3.76224811 22.14244786 5.32104487 25 8 C20.36983151 7.37793156 16.30795285 6.13594753 11.9375 4.5 C7.96325343 3.01559086 4.19005394 1.69702221 0 1 C0 0.67 0 0.34 0 0 Z " fill="#170E1C" transform="translate(244,19)"/>
<path d="M0 0 C2.82858266 3.36736031 4.4998253 6.87451958 6 11 C5.67 11.99 5.34 12.98 5 14 C4.34 12.02 3.68 10.04 3 8 C2.34 8 1.68 8 1 8 C1.33 9.32 1.66 10.64 2 12 C0 10.1875 0 10.1875 -2 8 C-2 7.01 -2 6.02 -2 5 C-1.01 5 -0.02 5 1 5 C0.67 3.35 0.34 1.7 0 0 Z " fill="#57366D" transform="translate(303,227)"/>
<path d="M0 0 C0.99 1.485 0.99 1.485 2 3 C2.99 3.33 3.98 3.66 5 4 C6.203125 6.1796875 6.203125 6.1796875 7.25 8.875 C7.60578125 9.75929687 7.9615625 10.64359375 8.328125 11.5546875 C9 14 9 14 8 17 C6.68 13.7 5.36 10.4 4 7 C4 8.98 4 10.96 4 13 C1.27835324 10.27835324 0.89427524 7.70485455 0 4 C0 2.68 0 1.36 0 0 Z " fill="#2E1C39" transform="translate(272,160)"/>
<path d="M0 0 C1.98 0.495 1.98 0.495 4 1 C3.01 1 2.02 1 1 1 C1.37253906 2.03640625 1.74507813 3.0728125 2.12890625 4.140625 C2.60732727 5.51022242 3.08516121 6.88002502 3.5625 8.25 C3.80935547 8.93191406 4.05621094 9.61382812 4.31054688 10.31640625 C6.47053761 16.58342161 6.47053761 16.58342161 5 20 C4.49440092 18.56445975 3.9957251 17.1264798 3.5 15.6875 C3.2215625 14.88699219 2.943125 14.08648437 2.65625 13.26171875 C2 11 2 11 2 8 C1.01 8 0.02 8 -1 8 C-0.67 5.36 -0.34 2.72 0 0 Z " fill="#23142B" transform="translate(268,158)"/>
<path d="M0 0 C2.5654594 2.5654594 2.54046087 4.47686668 3 8 C1.35 8.33 -0.3 8.66 -2 9 C-2.33 10.32 -2.66 11.64 -3 13 C-3.66 10.69 -4.32 8.38 -5 6 C-4.01 5.67 -3.02 5.34 -2 5 C-1.01 5.66 -0.02 6.32 1 7 C0.67 4.69 0.34 2.38 0 0 Z " fill="#1E1125" transform="translate(309,241)"/>
<path d="M0 0 C3.71080883 4.42442592 6.84577733 9.17403931 10 14 C9.67 14.66 9.34 15.32 9 16 C4.78102098 13.5268054 3.74594229 10.44421673 2 6 C1.34 5.01 0.68 4.02 0 3 C0 2.01 0 1.02 0 0 Z " fill="#24152D" transform="translate(39,294)"/>
<path d="M0 0 C0.33 0.66 0.66 1.32 1 2 C1.66 2 2.32 2 3 2 C5.20314021 5.77681179 6.02090716 9.78743249 7 14 C7.33115335 15.33387644 7.66386776 16.66736952 8 18 C4.9752109 15.44533941 3.79379389 12.62983727 2.3125 9 C1.87550781 7.948125 1.43851562 6.89625 0.98828125 5.8125 C0 3 0 3 0 0 Z " fill="#794B98" transform="translate(265,180)"/>
<path d="M0 0 C0 0.66 0 1.32 0 2 C-0.66 2.66 -1.32 3.32 -2 4 C-1.34 4 -0.68 4 0 4 C-1.75 7.875 -1.75 7.875 -4 9 C-4 8.34 -4 7.68 -4 7 C-4.66 7 -5.32 7 -6 7 C-6 6.34 -6 5.68 -6 5 C-6.66 4.67 -7.32 4.34 -8 4 C-3.375 0 -3.375 0 0 0 Z " fill="#995FC0" transform="translate(329,164)"/>
<path d="M0 0 C3.64630361 5.46945542 4.28778093 10.41384937 4.125 16.875 C4.11597656 17.56335938 4.10695312 18.25171875 4.09765625 18.9609375 C4.07432513 20.64077838 4.03846326 22.32043746 4 24 C3.67 24 3.34 24 3 24 C2.92652344 22.71416016 2.92652344 22.71416016 2.8515625 21.40234375 C2.45190775 15.29038227 1.85887697 9.82448116 0 4 C0 2.68 0 1.36 0 0 Z " fill="#2D1C39" transform="translate(179,189)"/>
<path d="M0 0 C-0.33 1.65 -0.66 3.3 -1 5 C-2.65 4.67 -4.3 4.34 -6 4 C-6 2.68 -6 1.36 -6 0 C-3.50907189 -1.24546405 -2.58919267 -0.7767578 0 0 Z " fill="#271E65" transform="translate(163,289)"/>
<path d="M0 0 C3.31658613 4.9748792 4.38479461 11.03568353 4 17 C0.23389596 11.35084394 -0.22755952 6.59922601 0 0 Z " fill="#3A2348" transform="translate(393,145)"/>
<path d="M0 0 C0.99 0 1.98 0 3 0 C3.125 6.75 3.125 6.75 2 9 C1.34 8.67 0.68 8.34 0 8 C0.33 7.34 0.66 6.68 1 6 C-0.65 6.66 -2.3 7.32 -4 8 C-2.625 6 -2.625 6 -1 4 C-0.34 4 0.32 4 1 4 C1 3.34 1 2.68 1 2 C0.34 1.67 -0.32 1.34 -1 1 C-0.67 0.67 -0.34 0.34 0 0 Z " fill="#382245" transform="translate(328,162)"/>
<path d="M0 0 C0.33 1.32 0.66 2.64 1 4 C0.01 4 -0.98 4 -2 4 C-2 4.66 -2 5.32 -2 6 C-0.02 6 1.96 6 4 6 C2 8 2 8 -0.625 8.125 C-1.40875 8.08375 -2.1925 8.0425 -3 8 C-3.33 6.68 -3.66 5.36 -4 4 C-2.68 3.34 -1.36 2.68 0 2 C0 1.34 0 0.68 0 0 Z " fill="#100C2B" transform="translate(209,309)"/>
<path d="M0 0 C-0.33 0.33 -0.66 0.66 -1 1 C0.32 1.99 1.64 2.98 3 4 C1.741875 3.87625 0.48375 3.7525 -0.8125 3.625 C-1.87404297 3.52058594 -1.87404297 3.52058594 -2.95703125 3.4140625 C-5 3 -5 3 -8 1 C-3.375 -1.125 -3.375 -1.125 0 0 Z " fill="#2B1A37" transform="translate(160,170)"/>
<path d="M0 0 C0.33 0 0.66 0 1 0 C1 1.65 1 3.3 1 5 C3.97 5 6.94 5 10 5 C10 5.66 10 6.32 10 7 C7.26094655 8.36952673 5.02912668 8.12621361 2 8 C1.34 7.67 0.68 7.34 0 7 C0 4.69 0 2.38 0 0 Z " fill="#20164E" transform="translate(180,304)"/>
<path d="M0 0 C0.66 0.33 1.32 0.66 2 1 C0.515 3.475 0.515 3.475 -1 6 C0.98 5.34 2.96 4.68 5 4 C4.34 5.32 3.68 6.64 3 8 C1.35 8 -0.3 8 -2 8 C-2.33 7.01 -2.66 6.02 -3 5 C-1.5625 2.3125 -1.5625 2.3125 0 0 Z " fill="#110C2B" transform="translate(245,304)"/>
<path d="M0 0 C0 0.99 0 1.98 0 3 C-2.64 3.33 -5.28 3.66 -8 4 C-5.97675095 -0.48005146 -4.79569304 -1.43870791 0 0 Z " fill="#3A2C95" transform="translate(189,296)"/>
<path d="M0 0 C2.51954654 2.25890379 3.87332733 4.417897 5.25 7.5 C5.60578125 8.2734375 5.9615625 9.046875 6.328125 9.84375 C7 12 7 12 6 15 C4.99539469 12.87717331 3.99644398 10.75166979 3 8.625 C2.443125 7.44164062 1.88625 6.25828125 1.3125 5.0390625 C0 2 0 2 0 0 Z " fill="#372344" transform="translate(14,276)"/>
<path d="M0 0 C2.97921225 3.40043764 2.97921225 3.40043764 3.07421875 6.140625 C2.71614583 8.09375 2.35807292 10.046875 2 12 C0 10 0 10 -0.1953125 7.6171875 C-0.17210937 6.71226562 -0.14890625 5.80734375 -0.125 4.875 C-0.10695313 3.96492187 -0.08890625 3.05484375 -0.0703125 2.1171875 C-0.04710937 1.41851562 -0.02390625 0.71984375 0 0 Z " fill="#492D5C" transform="translate(281,177)"/>
<path d="M0 0 C0.33 0.99 0.66 1.98 1 3 C0.07421875 4.82421875 0.07421875 4.82421875 -1.3125 6.6875 C-1.76238281 7.31011719 -2.21226563 7.93273437 -2.67578125 8.57421875 C-3.11277344 9.04472656 -3.54976562 9.51523438 -4 10 C-4.66 10 -5.32 10 -6 10 C-4.6302836 6.00499382 -2.74277578 3.19990508 0 0 Z " fill="#23152C" transform="translate(51,85)"/>
<path d="M0 0 C2.52259061 1.97420135 2.9929808 2.96745642 3.6875 6.1875 C3.790625 7.115625 3.89375 8.04375 4 9 C2.68 8.34 1.36 7.68 0 7 C0 4.69 0 2.38 0 0 Z " fill="#A566CF" transform="translate(275,166)"/>
<path d="M0 0 C1.95825873 -0.02694851 3.91662226 -0.04637218 5.875 -0.0625 C6.96554688 -0.07410156 8.05609375 -0.08570312 9.1796875 -0.09765625 C12 0 12 0 14 1 C14 1.66 14 2.32 14 3 C12.68 3 11.36 3 10 3 C10 2.34 10 1.68 10 1 C6.7 1 3.4 1 0 1 C0 0.67 0 0.34 0 0 Z " fill="#5C3873" transform="translate(118,124)"/>
<path d="M0 0 C3.08089673 2.77280706 4.68775452 5.06326356 6 9 C3 8 3 8 1.3125 5.625 C0 3 0 3 0 0 Z " fill="#261730" transform="translate(352,91)"/>
<path d="M0 0 C0.99 0 1.98 0 3 0 C3.33 2.31 3.66 4.62 4 7 C3.01 7.495 3.01 7.495 2 8 C0.74335022 5.09399739 0 3.20395416 0 0 Z " fill="#8351A4" transform="translate(269,159)"/>
<path d="M0 0 C1.32 0 2.64 0 4 0 C3.67 1.32 3.34 2.64 3 4 C1.68 3.67 0.36 3.34 -1 3 C-0.67 2.01 -0.34 1.02 0 0 Z " fill="#0B071A" transform="translate(185,304)"/>
</svg>
